<?xml version="1.0" encoding="UTF-8" standalone="no"?>
<!-- Uploaded to SVGRepo https://www.svgrepo.com -->

<svg
   version="1.1"
   id="Layer_1"
   x="0px"
   y="0px"
   viewBox="0 0 32 32"
   style="enable-background:new 0 0 32 32;"
   xml:space="preserve"
   sodipodi:docname="icon.svg"
   inkscape:version="1.1 (c4e8f9e, 2021-05-24)"
   xmlns:inkscape="http://www.inkscape.org/namespaces/inkscape"
   xmlns:sodipodi="http://sodipodi.sourceforge.net/DTD/sodipodi-0.dtd"
   xmlns="http://www.w3.org/2000/svg"
   xmlns:svg="http://www.w3.org/2000/svg"><defs
   id="defs829" /><sodipodi:namedview
   id="namedview827"
   pagecolor="#ffffff"
   bordercolor="#666666"
   borderopacity="1.0"
   inkscape:pageshadow="2"
   inkscape:pageopacity="0.0"
   inkscape:pagecheckerboard="0"
   showgrid="false"
   inkscape:zoom="20.3125"
   inkscape:cx="15.975385"
   inkscape:cy="16"
   inkscape:window-width="1312"
   inkscape:window-height="872"
   inkscape:window-x="61"
   inkscape:window-y="0"
   inkscape:window-maximized="0"
   inkscape:current-layer="Layer_1" />
<path
   id="random--samples_1_"
   d="M31.255,11.746l-11-11c-0.141-0.141-0.369-0.141-0.51,0l-11,11c-0.141,0.141-0.141,0.368,0,0.509  l2.386,2.386H1c-0.199,0-0.36,0.161-0.36,0.36v16c0,0.199,0.161,0.36,0.36,0.36h16c0.199,0,0.36-0.161,0.36-0.36V20.87l2.385,2.385  c0.07,0.07,0.163,0.105,0.255,0.105s0.185-0.035,0.255-0.105l11-11C31.396,12.114,31.396,11.886,31.255,11.746z M16.64,30.64H1.36  V15.36h15.28V30.64z M20,22.491l-2.64-2.641V15c0-0.199-0.161-0.36-0.36-0.36h-4.851L9.509,12L20,1.509L30.491,12L20,22.491z M14,19  c0,0.552-0.448,1-1,1s-1-0.448-1-1s0.448-1,1-1S14,18.448,14,19z M20,6c-0.552,0-1,0.448-1,1s0.448,1,1,1s1-0.448,1-1S20.552,6,20,6  z M20,11c-0.552,0-1,0.448-1,1s0.448,1,1,1s1-0.448,1-1S20.552,11,20,11z M15,11c-0.552,0-1,0.448-1,1s0.448,1,1,1s1-0.448,1-1  S15.552,11,15,11z M25,11c-0.552,0-1,0.448-1,1s0.448,1,1,1s1-0.448,1-1S25.552,11,25,11z M20,16c-0.552,0-1,0.448-1,1s0.448,1,1,1  s1-0.448,1-1S20.552,16,20,16z M9,22c-0.552,0-1,0.448-1,1s0.448,1,1,1s1-0.448,1-1S9.552,22,9,22z M5,26c-0.552,0-1,0.448-1,1  s0.448,1,1,1s1-0.448,1-1S5.552,26,5,26z" />
<rect
   id="_Transparent_Rectangle"
   style="fill:none;"
   width="32"
   height="32" />
<path
   style="fill:#ffffff;stroke-width:0.0492308"
   d="M 1.4030769,22.990769 V 15.36 h 7.6061539 7.6061542 v 7.630769 7.630769 H 9.0092308 1.4030769 Z m 4.1696412,4.859608 c 0.242633,-0.168145 0.4042451,-0.4495 0.4421804,-0.769804 0.024312,-0.205274 0.00677,-0.292018 -0.1054084,-0.521306 -0.1816234,-0.371225 -0.4217014,-0.529961 -0.8420071,-0.556724 -0.4163922,-0.02651 -0.7132372,0.1114 -0.9110089,0.423253 -0.3417328,0.538857 -0.1718548,1.184321 0.3924654,1.4912 0.2680127,0.145747 0.7638983,0.113478 1.0237786,-0.06662 z M 9.481918,23.88754 C 10.299162,23.460607 10.135649,22.223231 9.2333858,22.006782 8.5780411,21.849567 8,22.318928 8,23.008274 8,23.80305 8.7695842,24.259668 9.481918,23.88754 Z m 4.033124,-4.004897 c 0.106906,-0.06008 0.255602,-0.197595 0.330435,-0.30558 0.11966,-0.172669 0.136061,-0.241787 0.136061,-0.573372 0,-0.327169 -0.01757,-0.403591 -0.132874,-0.577822 -0.191116,-0.288795 -0.594969,-0.480357 -0.929237,-0.440768 -0.543006,0.06431 -0.889298,0.41753 -0.922635,0.941089 -0.01517,0.238187 0.0026,0.349545 0.07964,0.499405 0.287611,0.559388 0.906612,0.756046 1.438607,0.457048 z"
   id="path985" /><path
   style="fill:#ffffff;stroke-width:0.0492308"
   d="m 18.696164,21.157054 -1.291093,-1.292439 -0.0133,-2.527452 -0.0133,-2.527451 -0.116223,-0.09409 c -0.111003,-0.08986 -0.228234,-0.09409 -2.60958,-0.09409 h -2.493356 l -1.304078,-1.304774 -1.3040784,-1.304776 5.2305804,-5.2305805 5.230581,-5.2305804 5.21849,5.2184903 5.21849,5.2184906 -5.231015,5.230843 -5.231015,5.230842 z m 1.738088,-3.231777 c 0.707967,-0.321552 0.781543,-1.333963 0.129419,-1.780806 -0.242767,-0.166346 -0.753487,-0.194246 -1.023325,-0.0559 -0.632754,0.324408 -0.758131,1.15169 -0.24937,1.645426 0.298496,0.28968 0.757534,0.366482 1.143276,0.191282 z m -4.938208,-5.035173 c 0.361225,-0.180887 0.588282,-0.667151 0.508959,-1.089981 -0.11651,-0.62105 -0.851677,-0.993951 -1.436178,-0.728477 -0.390083,0.177172 -0.655361,0.668065 -0.583366,1.07951 0.124251,0.710082 0.854687,1.067396 1.510585,0.738948 z m 4.999512,-0.003 c 0.472141,-0.220059 0.65839,-0.882523 0.391275,-1.391721 -0.256336,-0.488653 -0.849273,-0.652832 -1.371826,-0.379847 -0.700912,0.36616 -0.712427,1.406041 -0.01962,1.771788 0.321756,0.16986 0.635406,0.169792 1.000171,-1.97e-4 z m 4.788741,0.08877 c 0.243878,-0.04093 0.559901,-0.324549 0.663291,-0.595272 0.118758,-0.310964 0.07259,-0.716553 -0.111178,-0.976614 -0.330926,-0.468324 -1.056971,-0.562318 -1.495204,-0.193569 -0.252384,0.212367 -0.354203,0.47312 -0.332782,0.85223 0.02078,0.367704 0.139081,0.594001 0.406226,0.777052 0.159318,0.109166 0.491985,0.206226 0.619196,0.180657 0.04062,-0.0082 0.153318,-0.02818 0.250451,-0.04448 z M 20.318471,7.973218 C 21.117368,7.7513428 21.262496,6.5490112 20.54023,6.1360409 20.268556,5.9807059 20.021206,5.9408685 19.750944,6.0089212 19.141328,6.1624243 18.812835,6.8428391 19.072402,7.414401 c 0.218716,0.4816103 0.717938,0.7054936 1.246069,0.558817 z"
   id="path1061" /><path
   style="fill:#ffffff;stroke-width:0.0492308"
   d="m 18.696164,21.157054 -1.291093,-1.292439 -0.0133,-2.527452 -0.0133,-2.527451 -0.116223,-0.09409 c -0.111003,-0.08986 -0.228234,-0.09409 -2.60958,-0.09409 h -2.493356 l -1.304078,-1.304774 -1.3040784,-1.304776 5.2305804,-5.2305805 5.230581,-5.2305804 5.21849,5.2184903 5.21849,5.2184906 -5.231015,5.230843 -5.231015,5.230842 z m 1.698591,-3.214788 c 0.378836,-0.158288 0.609218,-0.508359 0.609175,-0.925659 -3.2e-5,-0.319475 -0.06957,-0.504603 -0.268488,-0.714785 -0.208506,-0.220314 -0.414313,-0.301991 -0.758476,-0.301012 -0.542723,0.0015 -0.949578,0.381461 -0.987387,0.922012 -0.01677,0.239728 0.0019,0.324742 0.121608,0.55241 0.115163,0.219112 0.190151,0.294533 0.403818,0.406154 0.301481,0.157495 0.599206,0.178099 0.87975,0.06088 z m -4.902222,-5.05037 c 0.447377,-0.223948 0.653586,-0.834021 0.438748,-1.29805 -0.361637,-0.781099 -1.445492,-0.82496 -1.824801,-0.07385 -0.461883,0.914632 0.465609,1.83265 1.386053,1.371896 z m 5.043403,-0.01792 c 0.313989,-0.205734 0.46802,-0.498047 0.46802,-0.888191 0,-0.894099 -1.043106,-1.337049 -1.699395,-0.721639 -0.499234,0.468138 -0.400122,1.311204 0.190824,1.623175 0.303404,0.160173 0.785159,0.153994 1.040551,-0.01335 z m 4.940987,0.02225 c 0.559269,-0.281246 0.713449,-1.008872 0.325821,-1.537656 -0.05516,-0.07524 -0.217746,-0.194275 -0.361305,-0.264511 -0.68502,-0.33515 -1.438477,0.126613 -1.440629,0.882901 -9.9e-4,0.34764 0.0806,0.549581 0.310458,0.768379 0.300865,0.286395 0.774324,0.34768 1.165655,0.150887 z M 20.573764,7.8417925 C 21.295401,7.3351616 21.080535,6.2030862 20.22465,6.0024017 19.442006,5.8188902 18.746164,6.6347515 19.054919,7.373889 c 0.252846,0.6052933 0.99673,0.8344581 1.518845,0.4679035 z"
   id="path1139" /><path
   style="fill:#ffffff;stroke-width:0.0492308"
   d="M 1.4030769,22.990769 V 15.36 h 7.6061539 7.6061542 v 7.630769 7.630769 H 9.0092308 1.4030769 Z m 4.1476293,4.868372 c 0.3363901,-0.220509 0.5395705,-0.694594 0.457611,-1.067753 -0.060319,-0.274629 -0.2965116,-0.579418 -0.5405709,-0.697564 -0.308055,-0.149127 -0.770977,-0.127638 -1.0268158,0.04767 -0.6672376,0.457198 -0.5916627,1.439514 0.1371088,1.782128 0.2706908,0.127259 0.7262373,0.09706 0.9726669,-0.06448 z m 3.8170289,-3.910983 c 0.7201079,-0.300807 0.8718129,-1.245662 0.2785207,-1.734703 -0.4627053,-0.381401 -1.1572205,-0.276907 -1.5017847,0.225951 -0.1689846,0.246617 -0.1942705,0.753056 -0.051565,1.032781 0.23453,0.459717 0.8043959,0.672482 1.274829,0.475971 z m 3.9157499,-3.964016 c 0.229195,-0.06364 0.56622,-0.35804 0.656349,-0.57333 0.182104,-0.434991 0.01452,-1.007103 -0.36563,-1.248184 -1.066762,-0.67652 -2.167352,0.725737 -1.251955,1.595111 0.25734,0.244402 0.603122,0.325845 0.961236,0.226403 z"
   id="path1178" /></svg>
