<?xml version="1.0" encoding="UTF-8" standalone="no"?>
<!-- Created with Inkscape (http://www.inkscape.org/) -->

<svg
   width="30mm"
   height="30mm"
   viewBox="0 0 30 30"
   version="1.1"
   id="svg8"
   inkscape:version="1.1 (c4e8f9e, 2021-05-24)"
   sodipodi:docname="logo.svg"
   inkscape:export-filename="/Users/dmevdok/Desktop/_archive/jademirror_design/logo512.png"
   inkscape:export-xdpi="433.49335"
   inkscape:export-ydpi="433.49335"
   xmlns:inkscape="http://www.inkscape.org/namespaces/inkscape"
   xmlns:sodipodi="http://sodipodi.sourceforge.net/DTD/sodipodi-0.dtd"
   xmlns="http://www.w3.org/2000/svg"
   xmlns:svg="http://www.w3.org/2000/svg"
   xmlns:rdf="http://www.w3.org/1999/02/22-rdf-syntax-ns#"
   xmlns:cc="http://creativecommons.org/ns#"
   xmlns:dc="http://purl.org/dc/elements/1.1/">
  <defs
     id="defs2" />
  <sodipodi:namedview
     id="base"
     pagecolor="#000000"
     bordercolor="#666666"
     borderopacity="1.0"
     inkscape:pageopacity="0"
     inkscape:pageshadow="2"
     inkscape:zoom="7.9195959"
     inkscape:cx="26.011428"
     inkscape:cy="54.358834"
     inkscape:document-units="mm"
     inkscape:current-layer="layer1"
     showgrid="false"
     inkscape:pagecheckerboard="true"
     inkscape:window-width="1381"
     inkscape:window-height="865"
     inkscape:window-x="8"
     inkscape:window-y="13"
     inkscape:window-maximized="0" />
  <metadata
     id="metadata5">
    <rdf:RDF>
      <cc:Work
         rdf:about="">
        <dc:format>image/svg+xml</dc:format>
        <dc:type
           rdf:resource="http://purl.org/dc/dcmitype/StillImage" />
      </cc:Work>
    </rdf:RDF>
  </metadata>
  <g
     inkscape:label="Layer 1"
     inkscape:groupmode="layer"
     id="layer1"
     transform="translate(0,-267)">
    <text
       xml:space="preserve"
       style="font-style:normal;font-weight:normal;font-size:10.58333302px;line-height:1.25;font-family:sans-serif;letter-spacing:0px;word-spacing:0px;fill:#000000;fill-opacity:1;stroke:none;stroke-width:0.26458332"
       x="9.1205721"
       y="280.59634"
       id="text4679"><tspan
         sodipodi:role="line"
         id="tspan4677"
         x="9.1205721"
         y="289.96011"
         style="stroke-width:0.26458332" /></text>
    <g
       id="g4755"
       transform="translate(-4.8943733,8.7864857)">
      <g
         id="g4750" />
    </g>
    <g
       id="g10120"
       transform="translate(0.05053356,0.0830176)"
       style="fill:#ffffff">
      <path
         style="color:#000000;font-style:normal;font-variant:normal;font-weight:normal;font-stretch:normal;font-size:medium;line-height:normal;font-family:sans-serif;font-variant-ligatures:normal;font-variant-position:normal;font-variant-caps:normal;font-variant-numeric:normal;font-variant-alternates:normal;font-feature-settings:normal;text-indent:0;text-align:start;text-decoration:none;text-decoration-line:none;text-decoration-style:solid;text-decoration-color:#000000;letter-spacing:normal;word-spacing:normal;text-transform:none;writing-mode:lr-tb;direction:ltr;text-orientation:mixed;dominant-baseline:auto;baseline-shift:baseline;text-anchor:start;white-space:normal;shape-padding:0;clip-rule:nonzero;display:inline;overflow:visible;visibility:visible;opacity:1;isolation:auto;mix-blend-mode:normal;color-interpolation:sRGB;color-interpolation-filters:linearRGB;solid-color:#000000;solid-opacity:1;vector-effect:none;fill:#ffffff;fill-opacity:1;fill-rule:nonzero;stroke:none;stroke-width:1.022;stroke-linecap:butt;stroke-linejoin:miter;stroke-miterlimit:4;stroke-dasharray:none;stroke-dashoffset:0;stroke-opacity:1;color-rendering:auto;image-rendering:auto;shape-rendering:auto;text-rendering:auto;enable-background:accumulate"
         d="m 14.101969,279.42162 c -1.761947,0 -2.593247,0.9289 -2.593247,2.69085 0,1.76195 1.022621,2.52791 2.784567,2.52791 1.761946,0 2.39929,-0.67224 2.39929,-2.4342 0,-1.76194 -0.828663,-2.78456 -2.59061,-2.78456 z m -0.09374,1.17468 c 1.209616,0 1.616401,0.22195 1.616401,1.43156 0,1.20963 -0.266186,1.54742 -1.475802,1.54742 -1.209617,0 -1.587795,-0.13733 -1.587795,-1.34696 0,-1.20962 0.23758,-1.63202 1.447196,-1.63202 z"
         id="path4887"
         inkscape:connector-curvature="0"
         sodipodi:nodetypes="ssssssssss" />
      <path
         style="fill:#ffffff;stroke:#000000;stroke-width:0;stroke-linecap:butt;stroke-linejoin:miter;stroke-miterlimit:4;stroke-dasharray:none;stroke-opacity:1"
         d="m 8.1853128,278.3958 c -0.096801,0.23724 -0.1205517,6.86401 0.3653884,7.79551 0.1078533,0.21888 0.7060798,1.24788 0.8030687,0.49263 0.071477,-1.75414 0.1423616,-6.20285 0.083471,-8.80944 -0.010842,-0.4873 -0.07535,-0.57952 -0.2164864,-0.60946 -0.4291011,-0.1065 -0.9784518,0.61839 -1.0354461,1.13076 z"
         id="path3772-3-5-2-2-9"
         inkscape:connector-curvature="0"
         sodipodi:nodetypes="cccsccc" />
      <path
         style="fill:#ffffff;stroke:#000000;stroke-width:0;stroke-linecap:butt;stroke-linejoin:miter;stroke-miterlimit:4;stroke-dasharray:none;stroke-opacity:1"
         d="m 20.496084,278.3961 c -0.0968,0.23725 -0.120552,6.86401 0.365389,7.79552 0.107853,0.21888 0.706079,1.24788 0.803069,0.49262 0.07148,-1.75413 0.142361,-6.20284 0.08347,-8.80944 -0.01084,-0.48729 -0.07535,-0.57951 -0.216488,-0.60945 -0.429101,-0.1065 -0.978453,0.61839 -1.035447,1.13075 z"
         id="path3772-3-5-2-2-9-0"
         inkscape:connector-curvature="0"
         sodipodi:nodetypes="cccsccc" />
      <path
         style="fill:#ffffff;stroke:#000000;stroke-width:0;stroke-linecap:butt;stroke-linejoin:miter;stroke-miterlimit:4;stroke-dasharray:none;stroke-opacity:1"
         d="m 13.2223,269.05754 c -0.0968,0.23724 -0.12055,6.86401 0.365389,7.79551 0.107854,0.21888 0.706079,1.24788 0.803069,0.49263 0.07148,-1.75414 0.14236,-6.20284 0.08347,-8.80944 -0.01084,-0.48729 -0.07535,-0.57952 -0.216487,-0.60945 -0.429101,-0.1065 -0.978452,0.61838 -1.035447,1.13075 z"
         id="path3772-3-5-2-2-9-5"
         inkscape:connector-curvature="0"
         sodipodi:nodetypes="cccsccc" />
      <path
         style="fill:#ffffff;stroke:#000000;stroke-width:0;stroke-linecap:butt;stroke-linejoin:miter;stroke-miterlimit:4;stroke-dasharray:none;stroke-opacity:1"
         d="m 13.297761,287.3567 c -0.0968,0.23725 -0.120551,6.86401 0.365389,7.79552 0.107853,0.21888 0.706078,1.24788 0.803068,0.49262 0.07147,-1.75413 0.142361,-6.20284 0.08347,-8.80944 -0.01084,-0.48729 -0.07535,-0.57951 -0.216487,-0.60945 -0.429101,-0.1065 -0.978452,0.61839 -1.035447,1.13075 z"
         id="path3772-3-5-2-2-9-6"
         inkscape:connector-curvature="0"
         sodipodi:nodetypes="cccsccc" />
    </g>
  </g>
</svg>
